FILE "Learn Arabic Ultimate Bundle꞉ Lessons 1-44, Modern Standard Arabic Level 1꞉ Essentials of Grammar, Conversation, & Vocabulary [B0CP8H4W6R].m4b" MP3
TRACK 1 AUDIO
  TITLE "Opening Credits"
  INDEX 01 0:00:00
TRACK 2 AUDIO
  TITLE "Our Gift to You"
  INDEX 01 0:40:04
TRACK 3 AUDIO
  TITLE "Opening Credits: Part 1"
  INDEX 01 1:22:60
TRACK 4 AUDIO
  TITLE "Introduction"
  INDEX 01 1:54:24
TRACK 5 AUDIO
  TITLE "Lesson 1: Age & Possessive Pronouns"
  INDEX 01 3:40:56
TRACK 6 AUDIO
  TITLE "Lesson 2: Practice with Age"
  INDEX 01 21:18:45
TRACK 7 AUDIO
  TITLE "Lesson 3: Adjectives, Gender, & Plurality of Nouns"
  INDEX 01 32:00:63
TRACK 8 AUDIO
  TITLE "Lesson 4: Practice with the Body"
  INDEX 01 50:00:18
TRACK 9 AUDIO
  TITLE "Lesson 5: 'To Have'; Questions about Location & Number"
  INDEX 01 61:59:51
TRACK 10 AUDIO
  TITLE "Lesson 6: Practice with Family"
  INDEX 01 84:01:24
TRACK 11 AUDIO
  TITLE "Lesson 7: Subject Pronouns & 'To Be'"
  INDEX 01 96:02:08
TRACK 12 AUDIO
  TITLE "Lesson 8: Practice with Emotions"
  INDEX 01 112:36:10
TRACK 13 AUDIO
  TITLE "Lesson 9: Negation of 'To Be'"
  INDEX 01 121:15:20
TRACK 14 AUDIO
  TITLE "Lesson 10: Practice with Nationalities"
  INDEX 01 135:52:18
TRACK 15 AUDIO
  TITLE "Lesson 11: Adjectives & Articles"
  INDEX 01 146:07:54
TRACK 16 AUDIO
  TITLE "Lesson 12: Practice with Colors, Fruits, & Vegetables"
  INDEX 01 163:00:14
TRACK 17 AUDIO
  TITLE "Lesson 13: Pointer Words & Possession"
  INDEX 01 175:11:49
TRACK 18 AUDIO
  TITLE "Lesson 14: Practice with Animals"
  INDEX 01 191:28:60
TRACK 19 AUDIO
  TITLE "Lesson 15: 'To Like', 'To Love', & Negation"
  INDEX 01 203:50:70
TRACK 20 AUDIO
  TITLE "Lesson 16: Practice with People, Food, & Things"
  INDEX 01 235:15:05
TRACK 21 AUDIO
  TITLE "Lesson 17: Time, Dates, & Birthdays with Ordinal Numbers"
  INDEX 01 251:45:61
TRACK 22 AUDIO
  TITLE "Lesson 18: Practice with Time, Dates, & Birthdays"
  INDEX 01 275:55:71
TRACK 23 AUDIO
  TITLE "Lesson 19: 'To Eat' & Favorites"
  INDEX 01 290:42:33
TRACK 24 AUDIO
  TITLE "Lesson 20: Practice with Food"
  INDEX 01 316:08:08
TRACK 25 AUDIO
  TITLE "Lesson 21: Prepositions of Location; 'There Is/Are'"
  INDEX 01 330:03:63
TRACK 26 AUDIO
  TITLE "Lesson 22: Practice with Household Items and Directions"
  INDEX 01 352:20:37
TRACK 27 AUDIO
  TITLE "Lesson 23: 'To Study'; Future Tense"
  INDEX 01 366:30:28
TRACK 28 AUDIO
  TITLE "Lesson 24: Practice with 'To Study' and the Future"
  INDEX 01 395:38:59
TRACK 29 AUDIO
  TITLE "Lesson 25: 'To Want' and 'To Need'"
  INDEX 01 408:50:14
TRACK 30 AUDIO
  TITLE "Lesson 26: Practice with Want and Need"
  INDEX 01 435:21:08
TRACK 31 AUDIO
  TITLE "Lesson 27: 'To Play'; Present & Future Review"
  INDEX 01 459:35:17
TRACK 32 AUDIO
  TITLE "Lesson 28: Practice with Sports"
  INDEX 01 478:10:38
TRACK 33 AUDIO
  TITLE "Lesson 29: 'To Be Able To'; Adverbs of Time"
  INDEX 01 496:08:04
TRACK 34 AUDIO
  TITLE "Lesson 30: Practice with 'To Be Able to' & Questions"
  INDEX 01 520:33:70
TRACK 35 AUDIO
  TITLE "Parting Note"
  INDEX 01 549:31:25
TRACK 36 AUDIO
  TITLE "Opening Credits: Part 2"
  INDEX 01 550:11:03
TRACK 37 AUDIO
  TITLE "Introduction"
  INDEX 01 550:38:12
TRACK 38 AUDIO
  TITLE "Part 1: Numbers"
  INDEX 01 553:13:03
TRACK 39 AUDIO
  TITLE "Part 2: The Body"
  INDEX 01 562:06:41
TRACK 40 AUDIO
  TITLE "Part 3: Family"
  INDEX 01 582:50:57
TRACK 41 AUDIO
  TITLE "Part 4: Emotions"
  INDEX 01 613:03:35
TRACK 42 AUDIO
  TITLE "Part 5: Colors"
  INDEX 01 624:53:07
TRACK 43 AUDIO
  TITLE "Part 6: Fruits & Vegetables"
  INDEX 01 630:52:54
TRACK 44 AUDIO
  TITLE "Part 7: Animals"
  INDEX 01 647:03:64
TRACK 45 AUDIO
  TITLE "Part 8: Food"
  INDEX 01 665:14:48
TRACK 46 AUDIO
  TITLE "Part 9: Time"
  INDEX 01 692:32:44
TRACK 47 AUDIO
  TITLE "Part 10: The World"
  INDEX 01 709:01:07
TRACK 48 AUDIO
  TITLE "Part 11: The Home"
  INDEX 01 741:38:47
TRACK 49 AUDIO
  TITLE "Part 12: School"
  INDEX 01 761:10:40
TRACK 50 AUDIO
  TITLE "Part 13: Clothing"
  INDEX 01 774:42:49
TRACK 51 AUDIO
  TITLE "Part 14: Sports & Physical Activity"
  INDEX 01 789:00:73
TRACK 52 AUDIO
  TITLE "Conclusion"
  INDEX 01 807:11:71
TRACK 53 AUDIO
  TITLE "End Credits"
  INDEX 01 808:38:17
